<?xml version="1.0" encoding="UTF-8"?>
<svg width="300px" height="300px" viewBox="0 0 300 300" version="1.1" xmlns="http://www.w3.org/2000/svg" xmlns:xlink="http://www.w3.org/1999/xlink">
    <!-- Generator: Sketch 59.1 (86144) - https://sketch.com -->
    <title>bluenest_color</title>
    <desc>Created with Sketch.</desc>
    <defs>
        <polygon id="path-1" points="0 0.107723684 21.783518 0.107723684 21.783518 31.1170377 0 31.1170377"></polygon>
        <polygon id="path-3" points="0.0866808001 0.165445055 22.2182763 0.165445055 22.2182763 22.3026316 0.0866808001 22.3026316"></polygon>
        <polygon id="path-5" points="0.115993421 0.0189473684 74.2754013 0.0189473684 74.2754013 44.3214311 0.115993421 44.3214311"></polygon>
        <polygon id="path-7" points="0 44.9810526 150.459671 44.9810526 150.459671 0.197368421 0 0.197368421"></polygon>
    </defs>
    <g id="bluenest_color" stroke="none" stroke-width="1" fill="none" fill-rule="evenodd">
        <g id="Bluenest">
            <rect id="Rectangle-Copy" x="0" y="0" width="300" height="300"></rect>
            <g id="Group-21" transform="translate(74.000000, 117.000000)">
                <g id="Group-3" transform="translate(0.000000, 13.796842)">
                    <mask id="mask-2" fill="white">
                        <use xlink:href="#path-1"></use>
                    </mask>
                    <g id="Clip-2"></g>
                    <path d="M0.00138157895,0.107723684 L4.81105263,0.107723684 C4.81105263,6.41206579 4.81302632,13.2491053 4.80967105,19.5534474 C4.80848684,21.3964737 5.27407895,23.0760789 6.45828947,24.5279211 C7.79565789,26.1672632 9.55322368,26.7866053 11.5953947,26.5424605 C14.4767763,26.1974605 16.5975,23.9794342 16.9428947,21.0864079 C17.1203289,19.6016053 17.0449342,18.1393026 16.3620395,16.7910789 C15.2074342,14.5110789 13.2609868,13.55325 10.7591447,13.5994342 C9.20467105,13.6284474 7.83138158,14.2077237 6.51868421,14.9768684 C6.12631579,15.2068026 5.70671053,15.4396974 5.27526316,15.6946974 C5.26381579,15.5381842 5.27546053,15.4292368 5.27526316,15.3202895 C5.27388158,13.8400263 5.27526316,10.4105526 5.27526316,10.4105526 C9.91697368,7.79147368 16.8390789,8.85331579 20.1086842,13.6525263 C21.1395395,15.1655526 21.6380921,16.8577895 21.7505921,18.6769342 C21.8934868,20.9849605 21.5879605,23.2185789 20.5051974,25.2796974 C18.6124342,28.8836447 15.6554605,30.8942368 11.5377632,31.0989079 C8.64394737,31.2427895 6.02467105,30.5419342 3.82894737,28.5783158 C1.43625,26.4386447 0.0931578947,23.7650921 0.00138157895,20.5414737 C-0.00177631579,20.4323289 0.00138157895,0.107723684 0.00138157895,0.107723684" id="Fill-1" fill="#27357A" mask="url(#mask-2)"></path>
                </g>
                <path d="M57.3429868,34.0901053 C60.6155526,32.2658289 63.8640395,30.4551711 67.1261447,28.6368158 C65.8140395,27.2806974 62.6324605,26.9698421 60.6218684,27.9655658 C58.5368684,28.998 57.2062105,31.7694474 57.3429868,34.0901053 M61.1403553,44.8034605 C57.4738421,44.2101711 52.9539079,40.5037895 52.4908816,35.6151711 C52.1715395,32.2437237 52.7885132,29.0789211 55.1360132,26.4576711 C57.5581184,23.7531316 61.1904868,22.5156316 64.8013421,22.8920132 C66.8768684,23.1081316 68.7779211,23.7924079 70.4060132,25.2225395 C71.8736447,26.51175 72.9540395,28.0964211 73.8743684,29.8012895 C73.9148289,29.8749079 73.9221316,29.9473421 73.9221316,29.9473421 C73.9221316,29.9473421 64.2295658,35.3197105 59.3397632,38.0303684 C58.6835132,36.7899079 57.3333158,34.1806974 57.3333158,34.1806974 C57.3333158,34.1806974 57.387,35.3812895 57.6358816,36.1841842 C58.5793026,39.0373421 61.3586447,40.7021447 64.3381184,40.3618816 C68.2391053,39.9799737 69.7116711,36.5508947 69.8595,33.9148421 C70.3937763,33.9849079 74.5444342,34.6147105 74.5444342,34.6147105 C74.4031184,36.8550395 73.4997632,39.2680658 72.07575,40.98675 C70.0655526,43.413 67.4873289,44.7134605 64.3722632,44.9508947 C64.2524605,44.9599737 64.1302895,44.9635263 64.0102895,44.963161 C62.4733816,44.9578026 61.6454211,44.8851711 61.1403553,44.8034605" id="Fill-4" fill="#27357A"></path>
                <g id="Group-8" transform="translate(96.118421, 22.678421)">
                    <mask id="mask-4" fill="white">
                        <use xlink:href="#path-3"></use>
                    </mask>
                    <g id="Clip-7"></g>
                    <path d="M5.01682895,11.4294079 C8.28939474,9.60532895 11.5378816,7.79467105 14.7999868,5.97611842 C13.4878816,4.62019737 10.3065,4.30934211 8.29571053,5.30506579 C6.21071053,6.3375 4.88025,9.10894737 5.01682895,11.4294079 M8.81419737,22.1429605 C5.14768421,21.5496711 0.62775,17.8432895 0.164723684,12.9546711 C-0.154421053,9.58322368 0.462552632,6.41842105 2.80985526,3.79717105 C5.23196053,1.09263158 8.86432895,-0.144868421 12.4751842,0.231513158 C14.5509079,0.447434211 16.4517632,1.13190789 18.0798553,2.56203947 C19.5474868,3.85125 20.6278816,5.43592105 21.5482105,7.14059211 C21.5888684,7.21440789 21.5959737,7.28684211 21.5959737,7.28684211 C21.5959737,7.28684211 11.9034079,12.6592105 7.01360526,15.3698684 C6.35735526,14.1294079 5.00715789,11.5201974 5.00715789,11.5201974 C5.00715789,11.5201974 5.06103947,12.7207895 5.30972368,13.5236842 C6.25334211,16.3768421 9.03248684,18.0416447 12.0117632,17.7013816 C15.9129474,17.3194737 17.3855132,13.8903947 17.5333421,11.2543421 C18.0676184,11.3242105 22.2182763,11.9540132 22.2182763,11.9540132 C22.0769605,14.1945395 21.1736053,16.6075658 19.7495921,18.32625 C17.7393947,20.7525 15.1611711,22.0529605 12.0459079,22.2903947 C11.9265,22.2994737 11.8043289,22.3030263 11.6841316,22.302661 C10.1472237,22.2973026 9.31946053,22.2246711 8.81419737,22.1429605" id="Fill-6" fill="#0872BA" mask="url(#mask-4)"></path>
                </g>
                <g id="Group-11" transform="translate(76.184211, 0.178421)">
                    <mask id="mask-6" fill="white">
                        <use xlink:href="#path-5"></use>
                    </mask>
                    <g id="Clip-10"></g>
                    <path d="M22.5246118,17.3471842 L0.115993421,17.3471842 L0.115993421,12.4761316 L28.3665197,12.4761316 L39.9342829,12.4761316 L39.9342829,6.88665789 L53.6415197,0.0188289474 L67.1346118,6.76488158 L67.1346118,23.06475 L74.2754013,23.0578421 L74.2754013,27.6093553 L67.1346118,27.5943553 C67.1346118,27.5943553 67.1294803,34.6921184 67.1346118,37.9976447 C67.1361908,39.0393553 67.6013882,39.7163289 68.6267171,39.7494868 C70.3341513,39.8045526 74.2742171,39.8132368 74.2742171,39.8132368 L74.2742171,44.3102763 C74.2742171,44.3102763 70.1782303,44.3489605 68.3429013,44.28225 C66.5468487,44.2169211 64.9444145,43.6208684 63.7815197,42.156 C62.9734934,41.1381711 62.3926382,39.9533684 62.2929671,38.6708684 C62.2209276,37.7448158 62.2933618,36.8120526 62.2929671,35.8820526 C62.2882303,27.4206711 62.2929671,9.79665789 62.2929671,9.79665789 L53.6415197,5.55146053 L44.8775724,9.82448684 L44.8775724,17.3471842 L22.5246118,17.3471842 Z" id="Fill-9" fill="#0872BA" mask="url(#mask-6)"></path>
                </g>
                <path d="M124.860336,44.4806645 C123.010007,44.4806645 118.871191,44.487375 118.871191,44.487375 L118.871191,40.0637566 C118.871191,40.0637566 126.072178,40.073625 129.479151,40.0655329 C129.943362,40.0645461 130.422178,40.0635592 130.867836,39.9552039 C131.728362,39.7457961 132.052441,38.8830987 131.601849,38.1186908 C131.288428,37.5869803 130.78573,37.261125 130.235862,37.0572434 C129.307638,36.7126382 128.363033,36.4043487 127.408757,36.1400724 C125.555072,35.6265197 123.695072,35.1376382 121.994546,34.2007303 C120.670204,33.4710592 119.550533,32.5274408 119.16448,30.9982303 C118.666125,29.0253355 118.775862,27.1163882 120.165928,25.4835592 C121.097309,24.3895461 122.362441,23.8343487 123.738296,23.5635592 C124.519678,23.4100066 125.327507,23.3320461 126.12448,23.3249408 C129.123099,23.2979013 135.596388,23.3063882 135.596388,23.3063882 L135.596388,27.8022434 C135.596388,27.8022434 128.878164,27.7979013 125.790138,27.8081645 C125.41198,27.8095461 125.021388,27.8446776 124.658822,27.9443487 C123.720138,28.2021118 123.41323,29.1344803 124.079546,29.8404671 C124.420796,30.2020461 124.908691,30.4986908 125.385533,30.646125 C126.952441,31.1308618 128.547178,31.5246118 130.126125,31.9714539 C131.293954,32.3020461 132.415204,32.7502697 133.465796,33.3680329 C135.643954,34.6491513 136.62527,36.5608618 136.529546,39.0700066 C136.466586,40.7213882 135.947507,42.1384934 134.580533,43.1571118 C133.831125,43.7156645 132.97948,44.0677697 132.070401,44.2304013 C131.297507,44.3689539 130.506849,44.4526382 129.722112,44.4700066 C128.102309,44.5055329 126.480928,44.4806645 124.860336,44.4806645" id="Fill-12" fill="#0872BA"></path>
                <path d="M76.0663026,37.51725 C76.0663026,35.4626447 76.0491316,33.4080395 76.0710395,31.3536316 C76.0937368,29.2246184 76.8668289,27.3798158 78.2884737,25.8040263 C79.7225526,24.2148158 81.4888026,23.1987632 83.6091316,22.8825789 C86.5980789,22.4365263 89.2704474,23.1715263 91.5607105,25.1789605 C93.3070263,26.7093553 94.2461053,28.6483026 94.3931447,30.9555395 C94.4628158,32.0479737 94.46025,33.1463289 94.4628158,34.2419211 C94.4711053,37.5085658 94.4730789,44.5042895 94.4730789,44.5042895 L94.0297895,44.5042895 L90.2018289,44.5042895 L89.7705789,44.5042895 C89.7705789,44.5042895 89.7745263,36.2075132 89.7713684,32.2771184 C89.7697895,30.5104737 89.1579474,29.0088947 87.6883421,27.9841579 C85.1387368,26.2064605 81.4895921,27.6804079 80.9199868,30.9300789 C80.8522895,31.3159342 80.8418289,31.7156053 80.8412368,32.1089605 C80.8359079,36.0774474 80.8471579,44.5042895 80.8471579,44.5042895 L80.3521579,44.5042895 L76.4859079,44.5042895 L76.0576184,44.5042895 C76.0576184,44.5042895 76.0645263,39.6993553 76.0645263,37.51725 L76.0663026,37.51725 Z" id="Fill-14" fill="#0872BA"></path>
                <path d="M50.6117368,23.2467829 L50.6117368,23.7340855 C50.6117368,27.8174408 50.6123289,31.9009934 50.6115395,35.9845461 C50.61075,40.2254013 47.8124605,43.771125 43.6604211,44.6618487 C40.9199605,45.2498092 38.2730526,44.9697434 35.9020658,43.3280329 C33.8387763,41.8992829 32.7645,39.8539539 32.4161447,37.4127039 C32.2959474,36.5709276 32.2580526,35.7111908 32.2541053,34.8595461 C32.2373289,31.1460592 32.247,27.4325724 32.247,23.7192829 L32.247,23.2455987 L36.9966711,23.2455987 C36.9966711,23.4153355 36.9968684,23.5754013 36.9964737,23.7358618 C36.9887763,27.7935592 36.9761447,31.8512566 36.9751579,35.9089539 C36.9747632,37.9554671 38.2667368,39.7047434 40.1739079,40.2234276 C43.4985789,41.1277697 45.8697632,38.1850066 45.8646316,35.9332303 C45.8553553,31.8753355 45.8620658,27.8172434 45.8620658,23.7593487 L45.8620658,23.2467829 L50.6117368,23.2467829 Z" id="Fill-16" fill="#27357A"></path>
                <mask id="mask-8" fill="white">
                    <use xlink:href="#path-7"></use>
                </mask>
                <g id="Clip-19"></g>
                <polygon id="Fill-18" fill="#27357A" mask="url(#mask-8)" points="24.2236184 44.5209868 28.9115132 44.5209868 28.9115132 13.9046053 24.2236184 13.9046053"></polygon>
                <polygon id="Fill-20" fill="#0872BA" mask="url(#mask-8)" points="130.539296 11.4711908 128.043178 11.4713882 128.043178 8.922375 130.539296 8.92336184"></polygon>
            </g>
        </g>
    </g>
</svg>