<?xml version="1.0" encoding="UTF-8"?>
<svg width="300px" height="300px" viewBox="0 0 300 300" version="1.1" xmlns="http://www.w3.org/2000/svg" xmlns:xlink="http://www.w3.org/1999/xlink">
    <!-- Generator: Sketch 59.1 (86144) - https://sketch.com -->
    <title>Home24_color</title>
    <desc>Created with Sketch.</desc>
    <g id="Home24_color" stroke="none" stroke-width="1" fill="none" fill-rule="evenodd">
        <g id="Home24">
            <rect id="Rectangle-Copy-9" x="0" y="0" width="300" height="300"></rect>
            <g id="home24_logo_NEW" transform="translate(79.000000, 125.000000)">
                <path d="M141.964686,28.5690611 C141.964686,40.7979016 132.063755,50.697272 119.855585,50.697272 C107.644684,50.697272 97.7437539,40.7979016 97.7437539,28.5690611 C97.7437539,16.3569906 107.644684,6.45918026 119.855585,6.45918026 C132.063755,6.45918026 141.964686,16.3569906 141.964686,28.5690611" id="Fill-1" fill="#F45334"></path>
                <path d="M122.316095,38.0203215 C121.649585,37.7559015 120.885185,37.6045815 120.176555,37.5694815 C119.022155,37.5137115 117.943025,37.6494315 116.809685,37.8931815 C115.682975,38.1361515 114.551195,38.3424615 113.420585,38.5569615 C112.343404,38.7617115 111.242044,39.0951616 110.154334,39.1883716 C108.259324,39.3513916 108.707824,39.1466416 109.813864,37.0890015 C110.901574,35.0613914 112.367194,32.4780313 113.683445,29.9995812 C115.434545,26.7091511 116.636525,23.2163109 114.906095,19.5479708 C112.510324,14.4662706 105.448204,18.1529407 103.017724,21.2394008 C102.096934,22.4074509 105.629944,22.8267009 106.441924,22.0463109 C108.199654,19.6934408 111.221374,18.1252507 111.626194,21.7456209 C111.791944,23.2217709 111.315754,24.821551 110.716714,26.190061 C109.220674,29.6041212 107.209834,32.5806013 105.322624,35.7095714 C104.086324,37.7516115 103.344544,40.1040916 105.939214,40.9741816 C106.757824,41.2491316 107.609584,41.4012316 108.471094,41.3766616 C109.480414,41.3474116 110.453854,41.0989816 111.439384,40.9032016 C112.916314,40.6103116 114.394805,40.3072816 115.881875,40.0541716 C116.644715,39.9246916 117.409895,39.7632316 118.178975,39.7000516 C119.147345,39.6197116 120.174995,39.6251716 121.136345,39.7569916 C121.527515,39.8100316 121.908935,39.9282016 122.302055,39.9535516 C122.647985,39.9765616 123.473225,39.4239316 123.511835,39.0031215 C123.559025,38.4777915 122.648765,38.1533115 122.316095,38.0203215" id="Fill-2" fill="#FFFFFF"></path>
                <path d="M137.868905,26.7130511 C137.123225,26.6448011 136.366625,26.7130511 135.627965,26.8230311 C135.374855,26.8600811 135.123305,26.9037611 134.872145,26.9525111 C134.393615,27.0437711 133.917425,27.1447811 133.440845,27.2469611 C133.847225,25.131991 134.355785,22.8524409 134.779325,20.9562608 C135.103805,19.5019508 134.935325,17.6490607 134.379185,16.7009707 C134.216165,16.4236807 133.364015,16.1838306 132.915125,16.3308606 C132.545795,16.4521507 132.025535,16.9798207 131.751365,17.4474307 C131.406995,18.0324307 130.956155,18.9961208 130.822775,19.4052308 C129.876245,22.3021509 129.401615,24.919051 128.807255,27.9115211 C128.781125,28.0433411 128.760065,28.1759411 128.734715,28.3077611 C128.451575,28.3709411 128.169215,28.4360711 127.885685,28.4965211 C126.897035,28.7075111 125.946215,29.0495412 124.934945,29.1599112 C124.523495,29.2039812 123.951365,29.3814312 123.723605,28.9738812 C123.555125,28.6747511 123.770015,28.0417811 123.844115,27.7293911 C124.068755,26.7785711 124.359695,25.844131 124.709135,24.932311 C126.245735,20.9242808 126.714905,20.2211108 127.069025,17.7492907 C127.149755,17.1841807 127.140785,16.6151707 126.910685,16.0824306 C126.715685,15.6315906 126.408755,15.5493006 126.027725,15.5360406 C125.607305,15.5204406 125.005535,15.5586606 124.619435,15.7610706 C124.484495,15.8328306 124.342925,15.9088806 124.232555,16.0056006 C123.965795,16.2396006 123.706055,16.5200107 123.493505,16.8039307 C123.421355,16.9010407 123.353495,17.0012707 123.289535,17.1042307 C122.809445,17.8764307 122.332085,18.6232807 121.970945,19.4539808 C121.604735,20.2979408 121.254905,21.1497008 120.931205,22.0108209 C120.294335,23.7034209 119.765105,25.434241 119.336885,27.1908011 C119.268245,27.4727711 119.201945,27.7555211 119.137985,28.0378811 C118.688705,30.0214212 118.644635,31.9059013 121.835225,31.6102813 C124.067195,31.4031912 126.239885,30.8361312 128.397755,30.2246112 C128.317415,30.7284912 128.237855,31.2323712 128.172725,31.7382013 C128.086925,32.4132913 127.677815,35.5137914 127.622045,36.1896614 C127.553405,37.0234815 127.476575,37.9161915 127.516355,38.7511815 C127.530785,39.0503116 127.523765,39.3416416 127.568615,39.6368716 C127.600985,39.8478616 127.651685,40.1563516 127.801055,40.3217116 C128.033495,40.5822316 128.543225,40.6797316 129.016685,40.5869116 C129.552155,40.4816116 129.863765,40.4215516 130.301735,40.0331116 C130.645325,39.7273516 130.898435,39.1645816 131.109425,38.6876115 C131.427665,37.9672815 131.662055,37.2738615 131.865635,36.3019814 C132.172565,34.8387014 132.812555,30.9507912 133.045385,29.4750312 C133.073465,29.2995312 133.106225,29.1142812 133.136645,28.9329311 C133.523915,28.8405011 133.911575,28.7500211 134.300795,28.6677311 C135.155675,28.4871611 136.009385,28.3514411 136.882205,28.3058111 C137.397395,28.2792911 137.937155,28.2566711 138.451566,28.2824111 C138.739386,28.2968411 139.949166,28.5015911 139.886376,27.9076211 C139.793556,27.0246611 138.578706,26.7770111 137.868905,26.7130511" id="Fill-3" fill="#FFFFFF"></path>
                <path d="M36.6861315,31.8298513 C36.4361414,36.0461414 35.5180814,40.2889516 33.6511513,40.2265516 C32.0509813,40.1735116 31.2686412,37.2013215 31.2830712,34.2225014 C31.2990612,30.7234212 32.7455713,26.406511 32.7455713,26.406511 C32.7455713,26.406511 33.9284413,26.6783411 34.4814614,26.7458111 C35.0329214,26.8132811 36.2781914,26.9170211 36.2781914,26.9170211 C36.6334815,28.1119811 36.8124915,29.7094212 36.6861315,31.8298513 Z M86.5480234,22.2331209 C86.7726634,21.7893009 87.3541535,21.3482108 87.7991435,21.3509282 C88.1540435,21.3532808 88.4192435,21.6212109 88.4149535,22.3774209 C88.3935035,25.934611 86.3467834,26.323051 85.9899334,26.409241 C86.1779134,24.854311 86.0519434,23.3415009 86.5480234,22.2331209 Z M93.9326737,35.8975514 C93.8999137,35.9221214 93.8694937,35.9478614 93.8406337,35.9736014 C92.3044237,37.3510815 87.5702135,40.6524316 86.0593534,37.4302515 C85.4361334,36.1011314 85.4981434,34.3324814 85.5071134,32.8988413 C85.5141334,31.6984213 85.6116334,30.4094712 85.7079634,29.1205212 C87.8861135,29.0885412 91.0100136,27.1065611 91.0388736,22.2151809 C91.0568136,19.1470508 88.0799435,18.9512708 87.2784935,18.9469808 C81.0096332,18.9099308 79.6653032,28.3288211 79.6399532,32.6418313 C79.6391732,32.7888613 79.6430732,32.9269213 79.6442432,33.0696613 C78.0487531,36.0040214 76.303113,38.5908915 74.664333,38.6630415 C73.8546929,38.6985315 73.4877029,37.3631715 73.4927729,35.7797714 C73.5029129,32.9768413 74.434233,29.8513812 74.867133,26.8983011 C75.302763,23.918311 74.881953,21.9382809 72.5528729,21.8166009 C67.0905327,21.5311209 64.0239625,29.0175612 63.7462825,29.4629412 C63.8449525,25.527841 62.6796325,23.1894009 59.0783723,23.0954109 C56.5445422,23.0295009 53.9853621,26.9458811 53.9853621,26.9458811 C53.9853621,26.9458811 53.9865321,26.6303711 53.9990121,26.133121 C54.0407421,24.459631 53.8320921,20.6317808 50.719502,20.6154008 C50.703512,20.6154008 50.688692,20.6185208 50.672702,20.6189108 C49.861502,20.6087708 48.4263019,21.3915009 47.1006919,22.1383509 C45.1389918,23.2436109 41.0322916,24.401131 40.7854216,24.038431 C39.0694216,21.5116209 36.7313715,20.9359808 35.1655214,20.7421508 C31.8559813,20.3330408 29.1942312,21.6625509 29.0175612,23.4596709 C28.9614012,24.028681 29.2238712,24.546991 29.4481212,24.847681 C28.6845011,25.338301 27.9864011,26.195131 27.4002311,27.3003911 C26.6873111,28.4489411 26.069161,30.5912112 25.734151,31.6516213 C25.362871,32.8278613 24.900721,33.7580113 24.259951,34.9225514 C23.3859609,36.5114115 21.9624609,38.9508615 20.6505008,39.6134716 C20.2378808,39.8217316 19.4738708,40.0990216 19.1349608,39.5358616 C18.7566607,38.9060115 19.0351208,37.0745715 19.2550808,36.1350614 C19.5487508,34.8800414 20.0545808,32.7884713 20.3544908,31.5233113 C20.7285008,29.9445912 21.0666308,28.0554311 21.2745008,26.6522111 C21.5658309,24.680371 21.3985209,22.4893509 19.5748808,21.4429809 C17.0648407,20.0023208 14.0045106,20.6789708 11.8509305,22.4523009 C10.4757904,23.5836909 9.63027038,24.997831 8.60067034,26.7707711 C8.27619033,27.3312011 7.6537503,28.6466711 7.6537503,28.6466711 C7.6537503,28.6466711 8.16153032,25.022791 8.29491033,24.041551 C9.13263036,17.8982707 9.86583039,11.8731605 11.1356704,5.78370023 C11.4219305,4.41324018 11.8665305,3.27444013 11.8201205,1.84665007 C11.7928205,1.05105004 11.6060105,0.569400023 11.3166304,0.319410013 C10.2495904,-0.605670024 7.80546031,1.63761007 7.07460028,2.86260011 C5.44479022,5.59299022 4.65036018,8.84715035 3.97137016,11.9211305 C1.93674008,21.1192808 0.137670005,40.2386416 0.115830005,40.6196716 C0.0612300024,41.5720517 0.203580008,43.2521717 1.72692007,43.3399217 C2.5373401,43.3863317 3.00534012,43.3832117 4.27011017,42.8812817 C5.49978022,42.3933917 6.20412025,41.2768216 6.81135027,39.8392816 C7.4708403,38.2785015 8.28009033,36.1362314 8.93958036,34.3905914 C9.60453038,32.6313013 10.0027204,31.3989012 10.7866204,29.9578512 C11.4289505,28.7757611 12.4698605,27.3819011 13.8321305,26.9649911 C14.3325006,26.8117211 15.4096806,26.6061911 15.2080506,27.4571711 C15.1230306,27.8155811 13.9744806,32.0299213 13.6843205,33.2135713 C13.4819105,34.0349114 13.2826205,35.0087414 13.1344205,35.8433414 C12.3559805,40.2214816 15.2501706,44.5578918 20.1052808,43.0774517 C22.3996509,42.3781817 24.152701,40.8189616 25.469341,38.9446215 C25.656931,38.6774715 25.847641,38.3643015 26.037571,38.0324115 C27.2528111,41.9714117 30.8068812,43.2607517 32.5692913,43.3496717 C35.6265014,43.5037217 42.1001117,41.3817316 42.1356017,29.8381212 C42.1387217,29.0386212 42.0022217,27.7270511 41.9355317,27.0578111 C41.9441117,27.1467311 44.4681918,26.7263111 46.3472118,26.113621 C46.8448519,25.950991 47.2910119,25.755211 47.6911519,25.549681 C46.7243419,30.0729012 46.5180318,36.6561015 46.4626518,39.0842416 C46.3803618,42.7022717 47.1693319,43.3102817 48.4134319,43.3430417 C48.9906319,43.3578617 49.765172,43.2424217 49.765172,43.2424217 C52.6332321,42.4117217 52.6398621,40.3755316 52.6398621,40.3755316 C52.8270621,30.6992412 57.9157823,25.780561 59.0346923,25.809811 C59.3903724,25.819171 59.4812424,26.229841 59.4976224,26.8632011 C59.5530024,28.9914312 59.1064523,31.1633412 58.0920623,34.9221614 C57.5526923,36.9205215 57.2133923,38.4902715 57.1892123,39.4399216 C57.1084823,42.6511817 59.0155823,42.8816717 59.3716524,42.8914217 C59.4161124,42.8925917 59.4161124,42.8925917 59.4161124,42.8925917 C61.2830424,42.9409517 61.6200024,41.2300216 61.6200024,41.2300216 C65.6381726,28.6002611 69.1770327,26.9337911 69.1770327,26.9337911 C68.4723027,30.1739112 67.6755327,33.5481913 67.6041627,36.3975314 C67.5101727,40.1294416 68.9165127,43.4374217 73.2033929,43.2471017 C75.742683,43.1343917 78.1922731,40.3349716 80.0950832,37.3549815 C81.3657032,42.8547617 84.9544834,43.3449917 86.4696334,43.3539617 C89.0471435,43.3691717 91.5587436,42.1781117 93.2380837,40.3271716 C93.7419637,39.7714216 94.2466237,39.1981216 94.6951238,38.5975215 C95.0344238,38.1439515 95.9162138,37.1155215 95.9327554,36.5168715 C95.9637938,35.2384514 94.6307738,35.3679314 93.9326737,35.8975514 L93.9326737,35.8975514 Z" id="Fill-4" fill="#354044"></path>
            </g>
        </g>
    </g>
</svg>